<?xml version="1.0" encoding="UTF-8" standalone="no"?>
<svg width="211px" height="222px" viewBox="0 0 211 222" version="1.1" xmlns="http://www.w3.org/2000/svg" xmlns:xlink="http://www.w3.org/1999/xlink" xmlns:sketch="http://www.bohemiancoding.com/sketch/ns">
    <title>SteelTrapLogo</title>
    <description>Created with Sketch (http://www.bohemiancoding.com/sketch)</description>
    <defs></defs>
    <g id="Page-1" stroke="none" stroke-width="1" fill="none" fill-rule="evenodd" sketch:type="MSPage">
        <g id="Rectangle-4-+-Rectangle-4-copy" sketch:type="MSLayerGroup" transform="translate(15.000000, 203.000000)" fill="#FFFFFF">
            <path d="M33.0522461,0 C-3.43066406,1.5665344e-06 0,18.2197478 0,18.2197478 L32.0258789,18.2197478 L64.0703007,18.2197478 C64.0703007,18.2197478 69.5351562,-1.56093643e-06 33.0522461,0 Z" id="Rectangle-4" sketch:type="MSShapeGroup"></path>
            <path d="M150.052246,0 C113.569336,1.5665344e-06 117,18.2197478 117,18.2197478 L149.025879,18.2197478 L181.070301,18.2197478 C181.070301,18.2197478 186.535156,-1.56093643e-06 150.052246,0 Z" id="Rectangle-4-copy" sketch:type="MSShapeGroup"></path>
        </g>
        <path d="M81,65.1081378 C95.5693199,66.374285 107,78.6022525 107,93.5 C107,108.397747 95.5693199,120.625715 81,121.891862 L81,121.891862 L81,114.478271 L81,112.478271 L77,112.478271 L77,114.478271 L77,121.961204 C61.9571522,121.181185 50,108.736964 50,93.5 C50,78.2630356 61.9571522,65.8188155 77,65.0387962 L77,75.5 L77,77.5 L81,77.5 L81,75.5 L81,65.1081378 Z M163,104 L156.995481,104 C153.683331,104 151,101.312217 151,97.9966691 L151,94.0033309 C151,90.6780403 153.684268,88 156.995481,88 L176.004519,88 C179.316669,88 182,90.6877828 182,94.0033309 L182,97.9966691 C182,100.619368 180.330203,102.839434 178,103.660494 L178,132.001088 C178,135.319808 175.316813,138 172.006935,138 L168.993065,138 C165.681699,138 163,135.314196 163,132.001088 L163,104 L163,104 Z M14.0077064,0 C6.27146379,0 0,6.27185394 0,14.0077064 L0,196.992294 C0,204.728536 6.27185394,211 14.0077064,211 L196.992294,211 C204.728536,211 211,204.728146 211,196.992294 L211,14.0077064 C211,6.27146379 204.728146,0 196.992294,0 L14.0077064,0 Z M16.9971894,9 C12.5804637,9 9,12.574825 9,16.9971894 L9,195.002811 C9,199.419536 12.574825,203 16.9971894,203 L195.002811,203 C199.419536,203 203,199.425175 203,195.002811 L203,16.9971894 C203,12.5804637 199.425175,9 195.002811,9 L16.9971894,9 Z M23.0049115,19 C20.7930599,19 19,20.7890392 19,23.0049115 L19,189.995089 C19,192.20694 20.7890392,194 23.0049115,194 L189.995089,194 C192.20694,194 194,192.210961 194,189.995089 L194,23.0049115 C194,20.7930599 192.210961,19 189.995089,19 L23.0049115,19 Z" id="Rectangle-1" fill="#FFFFFF" sketch:type="MSShapeGroup"></path>
    </g>
</svg>